<?xml version="1.0" encoding="UTF-8" standalone="no"?>
<svg
   xmlns:dc="http://purl.org/dc/elements/1.1/"
   xmlns:cc="http://creativecommons.org/ns#"
   xmlns:rdf="http://www.w3.org/1999/02/22-rdf-syntax-ns#"
   xmlns:svg="http://www.w3.org/2000/svg"
   xmlns="http://www.w3.org/2000/svg"
   xmlns:sodipodi="http://sodipodi.sourceforge.net/DTD/sodipodi-0.dtd"
   xmlns:inkscape="http://www.inkscape.org/namespaces/inkscape"
   inkscape:version="1.0 (6e3e5246a0, 2020-05-07)"
   height="96.000031"
   width="96.000008"
   sodipodi:docname="noun_distance_939669.svg"
   id="svg10"
   viewBox="0 0 96.000008 96.000031"
   y="0px"
   x="0px"
   version="1.1">
  <metadata
     id="metadata16">
    <rdf:RDF>
      <cc:Work
         rdf:about="">
        <dc:format>image/svg+xml</dc:format>
        <dc:type
           rdf:resource="http://purl.org/dc/dcmitype/StillImage" />
        <dc:title></dc:title>
      </cc:Work>
    </rdf:RDF>
  </metadata>
  <defs
     id="defs14" />
  <sodipodi:namedview
     inkscape:current-layer="svg10"
     inkscape:window-maximized="0"
     inkscape:window-y="27"
     inkscape:window-x="0"
     inkscape:cy="38.766521"
     inkscape:cx="-18.303323"
     inkscape:zoom="1.74"
     fit-margin-bottom="0"
     fit-margin-right="0"
     fit-margin-left="0"
     fit-margin-top="0"
     showgrid="false"
     id="namedview12"
     inkscape:window-height="480"
     inkscape:window-width="848"
     inkscape:pageshadow="2"
     inkscape:pageopacity="0"
     guidetolerance="10"
     gridtolerance="10"
     objecttolerance="10"
     borderopacity="1"
     bordercolor="#666666"
     pagecolor="#ffffff" />
  <g
     id="g4"
     transform="translate(-1.9999977,-954.36217)">
    <path
       id="path2"
       overflow="visible"
       display="inline"
       visibility="visible"
       marker="none"
       stroke="none"
       fill="#000000"
       d="m 83.968802,954.36217 c 7.732699,0 14.0312,5.907 14.0312,14 0,1.8594 -0.520001,4.8649 -1.125001,6.5 l -12.874999,27.50003 -12.875,-27.50003 c -0.6015,-1.6345 -1.125,-4.6414 -1.125,-6.5 0,-8.093 6.2359,-14 13.9688,-14 z m 0.031,8 c -3.3137,0 -6,2.68632 -6,6 0,3.31368 2.6863,6 6,6 3.3136,0 6,-2.68632 6,-6 0,-3.31368 -2.6864,-6 -6,-6 z m -65.9688,34.00003 c 8.8374,0 15.9688,6.8954 15.9688,16 0,2.0909 -0.5939,5.2237 -1.2812,7.0625 l -14.7186,30.9375 -14.7188043,-30.9375 c -0.6911,-1.8394 -1.2812,-4.9707 -1.2812,-7.0625 0,-9.1046 7.194104,-16 16.0312043,-16 z m 62.0938,8.9687 a 2.0002,2.0002 0 0 1 1.0625,3.625 l -54,40 a 2.0002,2.0002 0 1 1 -2.375,-3.2187 l 54,-40 a 2.0002,2.0002 0 0 1 1.3125,-0.4063 z m -62.1248,0.031 c -3.866,0 -7,3.134 -7,7 0,3.8659 3.134,7 7,7 3.8659,0 7,-3.1341 7,-7 0,-3.866 -3.1341,-7 -7,-7 z"
       style="color:#000000;enable-background:accumulate" />
  </g>
</svg>
